<svg width="63" height="63" viewBox="0 0 63 63" fill="none" xmlns="http://www.w3.org/2000/svg">
<path d="M60.0469 23.9583V25.2257C60.0469 29.2106 59.06 33.1335 57.1744 36.644C55.2888 40.1545 52.5632 43.1435 49.2409 45.3439L38.3906 52.5298L34.4531 55.1372L31.5 57.0936L30.5156 56.4489L27.5625 54.5133L26.1475 53.5868L15.5371 46.6359L14.143 45.7229L13.8588 45.5358C10.5087 43.3409 7.75774 40.3467 5.85386 36.8231C3.94998 33.2995 2.9531 29.3575 2.95313 25.3525V22.5064C2.9532 19.3798 3.84488 16.318 5.52357 13.6802C6.84733 11.5994 8.67475 9.88624 10.8366 8.69938C12.9984 7.51253 15.4248 6.89036 17.891 6.8905H18.2638C20.5397 6.89061 22.7843 7.42059 24.8198 8.43847C26.8554 9.45635 28.626 10.9342 29.9914 12.7549L31.5 14.7655L33.0086 12.7549C34.4598 10.8197 36.3674 9.27375 38.5612 8.25479C40.755 7.23584 43.1669 6.77559 45.5818 6.91508C47.9966 7.05458 50.3395 7.78948 52.4014 9.05426C54.4632 10.319 56.1801 12.0744 57.3989 14.1638C59.1324 17.137 60.0461 20.5167 60.0469 23.9583V23.9583Z" fill="#5D62B5"/>
<path d="M34.4531 46.7577V55.1249V55.1372L38.3906 52.5298V43.6815L34.4531 46.7577Z" fill="#EA9D2D"/>
<path d="M44.2969 20.6718V23.1327C44.297 23.4559 44.2334 23.7759 44.1097 24.0746C43.9861 24.3732 43.8048 24.6445 43.5763 24.8731C43.3477 25.1016 43.0764 25.2829 42.7778 25.4065C42.4792 25.5301 42.1591 25.5937 41.8359 25.5936H39.375V31.4999L39.0147 32.4857L39.6383 33.4686L40.1182 37.0665C40.2362 37.9472 40.2733 38.8369 40.2289 39.7243C40.1451 41.4112 39.4978 43.0212 38.3906 44.2968L34.4531 47.2499V55.1372L31.5 57.0936L30.5156 56.4489V49.2186L26.1474 53.5868L15.5371 46.6359L23.625 35.4374L25.5937 32.4843L28.1716 29.9064L29.475 29.5874L29.5312 28.5468V25.8053C29.5314 23.1483 30.587 20.6002 32.4659 18.7215C33.1084 18.0796 33.9793 17.7189 34.8875 17.7186H37.0186C37.8974 17.7188 38.7401 18.068 39.3615 18.6895L41.3437 20.6718H44.2969Z" fill="#FBB540"/>
<path d="M35.4375 20.6718H37.4062V22.6405H35.4375V20.6718Z" fill="#985713"/>
<path d="M39.6387 33.4686H38.2187C36.2375 33.466 34.2838 33.0049 32.5105 32.1213L28.1719 29.9064L29.5315 28.5468V28.3905L33.3989 30.3642C34.8963 31.1097 36.546 31.4985 38.2187 31.4999H39.3753L39.6387 33.4686Z" fill="#5D62B5"/>
<path d="M31.745 29.5311H29.5312V27.5624H31.745C31.941 27.5621 32.129 27.4842 32.2676 27.3455C32.4062 27.2069 32.4842 27.0189 32.4844 26.8229V23.6249H34.4531V26.8229C34.4523 27.5409 34.1667 28.2292 33.659 28.737C33.1513 29.2447 32.463 29.5303 31.745 29.5311V29.5311Z" fill="#985713"/>
<path d="M31.5001 35.4374V37.4061C31.4999 38.1893 31.1887 38.9403 30.6349 39.4941C30.0811 40.0479 29.3301 40.3591 28.5469 40.3593V43.9399C28.5473 44.8146 28.2883 45.6698 27.8025 46.3972L26.5782 48.2342V51.1874L26.9362 51.9035L27.234 52.5003L27.5626 53.1561V54.5133L26.1475 53.5868L15.5372 46.6359L14.1431 45.7229L19.6876 37.4061V34.325C19.6876 34.25 19.6888 34.1737 19.6912 34.0986C19.7536 32.659 20.2998 31.2825 21.2416 30.1919L22.6407 28.5468L23.6251 32.4843H25.9821C26.4683 32.4843 26.9468 32.6043 27.3754 32.8338C27.8039 33.0633 28.1692 33.395 28.4387 33.7996C28.7749 34.3033 29.2302 34.7164 29.7642 35.002C30.2982 35.2877 30.8944 35.4372 31.5001 35.4374Z" fill="#E4E4E2"/>
<path d="M24.6094 35.4374H26.5781V37.4061H24.6094V35.4374Z" fill="#29C3BE"/>
</svg>
