<svg width="63" height="63" viewBox="0 0 63 63" fill="none" xmlns="http://www.w3.org/2000/svg">
<path d="M48.2344 54.1405V45.2811H54.1406V56.1093C54.1406 57.1535 53.7258 58.1551 52.9874 58.8935C52.2489 59.6319 51.2474 60.0468 50.2031 60.0468H48.2344V54.1405Z" fill="#F6BB92"/>
<path d="M52.8789 39.3749L53.8269 37.0415L54.6677 34.972C55.1181 33.8592 55.2393 32.6322 55.0157 31.4476C54.7921 30.263 54.2339 29.1744 53.4123 28.3207C52.3157 27.1812 51.6997 25.6358 51.6998 24.0245V18.3749H27.0505V24.0249C27.0505 25.6362 26.4345 27.1816 25.3379 28.3211C24.5163 29.1747 23.9581 30.2632 23.7344 31.4478C23.5107 32.6323 23.6317 33.8592 24.082 34.972L24.972 37.1713L52.8789 39.3749Z" fill="#834B10"/>
<path d="M54.1406 40.4408C54.1406 39.0427 53.6447 37.6899 52.741 36.6232C51.8373 35.5564 50.5844 34.8448 49.2053 34.6149L48.2344 34.4531L43.1507 33.6058L39.375 37.4062L35.5596 33.5765L28.5469 34.4531V60.0469H48.2344V52.1719C49.1248 51.2811 49.687 50.1147 49.8292 48.8633C49.9713 47.6118 49.6851 46.3491 49.0172 45.2812H54.1406V40.4408Z" fill="#5D62B5"/>
<path d="M52.5 23.6249H26.25V16.2131C26.25 12.6093 27.6328 9.15307 30.0942 6.60478C32.5556 4.05649 35.894 2.62488 39.375 2.62488C42.856 2.62488 46.1944 4.05649 48.6558 6.60478C51.1172 9.15307 52.5 12.6093 52.5 16.2131V23.6249Z" fill="#834B10"/>
<path d="M47.25 16.7343V15.7499L46.2656 10.828H32.4844L31.5 15.7499V16.7343C30.7168 16.7343 29.9656 17.0454 29.4118 17.5992C28.858 18.153 28.5469 18.9042 28.5469 19.6874C28.5469 20.4706 28.858 24.3836 29.4118 24.9374C29.9656 25.4912 29.6863 24.7762 30.4695 24.7762L30.1875 24.9374H31.5C31.5 26.7649 33.2103 27.205 34.5026 28.4973C35.7948 29.7895 37.5475 30.5155 39.375 30.5155C41.2025 30.5155 42.9552 29.7895 44.2474 28.4973C45.5397 27.205 46.2656 26.6037 46.2656 24.7762L47.25 24.9374H48.5625C49.3457 24.9374 48.7844 25.33 49.3382 24.7762C49.892 24.2224 50.2031 20.4706 50.2031 19.6874C50.2031 18.9042 49.892 18.153 49.3382 17.5992C48.7844 17.0454 48.0332 16.7343 47.25 16.7343Z" fill="#F6BB92"/>
<path d="M38.3906 41.1652V60.0468H16.3652C17.0995 58.9038 17.9542 57.8428 18.9148 56.882L18.9874 56.8094C20.7474 55.0523 22.1554 52.9749 23.1353 50.6891C23.5216 49.7884 23.9068 48.8877 24.1873 48.2343C24.442 47.64 24.6094 47.2499 24.6094 47.2499H21.7768C20.8989 47.2492 20.0464 46.9553 19.3545 46.415C18.6626 45.8747 18.1709 45.1188 17.9575 44.2673L17.4727 42.328L17.3459 41.8211C17.2734 41.5309 17.2679 41.2279 17.33 40.9353C17.392 40.6426 17.52 40.368 17.7041 40.1322C17.8881 39.8963 18.1236 39.7056 18.3924 39.5744C18.6612 39.4432 18.9565 39.375 19.2556 39.3749H22.6406C23.2753 37.469 24.5712 35.8531 26.2939 34.8197L26.7246 34.5625C27.8317 33.8986 29.0883 33.5245 30.3783 33.4748C31.6683 33.4251 32.95 33.7015 34.1049 34.2783L34.148 34.3005C35.4228 34.9379 36.495 35.9178 37.2443 37.1303C37.9937 38.3427 38.3906 39.7399 38.3906 41.1652Z" fill="#4B4B4B"/>
<path d="M38.3906 41.3436V44.1368C38.3906 44.7566 38.1956 45.3607 37.8332 45.8635C37.4707 46.3663 36.9593 46.7423 36.3713 46.9383C35.7652 47.1404 35.1098 47.1404 34.5037 46.9383C33.9157 46.7423 33.4043 46.3663 33.0418 45.8635C32.6794 45.3607 32.4844 44.7566 32.4844 44.1368V39.3749H36.4219L38.3906 41.3436Z" fill="black"/>
<path d="M29.2432 45.9775L27.2745 47.9463C27.0897 48.1307 26.8392 48.2343 26.578 48.2342H24.1872C24.442 47.6399 24.6093 47.2498 24.6093 47.2498H21.7768C20.8181 47.2507 19.8924 46.9005 19.1743 46.2654H26.1708L27.8504 44.5846C28.0351 44.3999 28.2856 44.2961 28.5468 44.2961C28.808 44.2961 29.0585 44.3999 29.2432 44.5846C29.428 44.7693 29.5317 45.0198 29.5317 45.2811C29.5317 45.5423 29.428 45.7928 29.2432 45.9775V45.9775Z" fill="black"/>
<path d="M20.6718 39.3749V40.5646C20.6718 41.0323 20.4861 41.4808 20.1554 41.8115C19.8247 42.1422 19.3761 42.328 18.9085 42.328H17.4726L17.3459 41.8211C17.2733 41.5308 17.2679 41.2279 17.3299 40.9352C17.392 40.6426 17.5199 40.3679 17.704 40.1321C17.8881 39.8963 18.1235 39.7056 18.3924 39.5744C18.6612 39.4431 18.9564 39.3749 19.2556 39.3749H20.6718Z" fill="black"/>
<path d="M23.7253 57.6152C23.5426 57.6151 23.3635 57.5641 23.2081 57.4679C23.0527 57.3718 22.9271 57.2342 22.8455 57.0708C22.7638 56.9073 22.7292 56.7243 22.7457 56.5423C22.7621 56.3603 22.8289 56.1864 22.9386 56.0402C24.1127 54.4758 25.0264 52.7319 25.6444 50.8761C25.6843 50.7523 25.7484 50.6376 25.8329 50.5387C25.9174 50.4398 26.0207 50.3587 26.1367 50.2999C26.2528 50.2412 26.3794 50.206 26.5091 50.1965C26.6388 50.187 26.7692 50.2032 26.8926 50.2444C27.016 50.2855 27.13 50.3507 27.2281 50.4362C27.3261 50.5217 27.4063 50.6257 27.4639 50.7424C27.5215 50.859 27.5554 50.9859 27.5636 51.1157C27.5719 51.2455 27.5544 51.3757 27.512 51.4987C26.8271 53.5553 25.8146 55.4878 24.5136 57.2215C24.4219 57.3439 24.3029 57.4433 24.1661 57.5116C24.0292 57.58 23.8783 57.6155 23.7253 57.6152V57.6152Z" fill="black"/>
<path d="M31.5 16.7343C32.4254 16.4258 33.2725 15.9194 33.9823 15.2503C34.6921 14.5811 35.2474 13.7653 35.6098 12.8596L36.4219 10.828L31.5 9.84363V16.7343Z" fill="#834B10"/>
<path d="M36.4219 10.828L36.5372 11.0009C37.7129 12.7645 39.3059 14.2106 41.1747 15.2108C43.0435 16.211 45.1304 16.7343 47.25 16.7343V9.84363L36.4219 10.828Z" fill="#834B10"/>
<path d="M35.3555 20.8358C36.035 20.8358 36.5859 20.2849 36.5859 19.6053C36.5859 18.9258 36.035 18.3749 35.3555 18.3749C34.6759 18.3749 34.125 18.9258 34.125 19.6053C34.125 20.2849 34.6759 20.8358 35.3555 20.8358Z" fill="black"/>
<path d="M40.6055 20.8358C41.285 20.8358 41.8359 20.2849 41.8359 19.6053C41.8359 18.9258 41.285 18.3749 40.6055 18.3749C39.9259 18.3749 39.375 18.9258 39.375 19.6053C39.375 20.2849 39.9259 20.8358 40.6055 20.8358Z" fill="black"/>
<path d="M45.2812 42.328C45.0202 42.328 44.7698 42.2243 44.5852 42.0397C44.4006 41.8551 44.2969 41.6047 44.2969 41.3436V34.453C44.2969 34.1919 44.4006 33.9416 44.5852 33.7569C44.7698 33.5723 45.0202 33.4686 45.2812 33.4686C45.5423 33.4686 45.7927 33.5723 45.9773 33.7569C46.1619 33.9416 46.2656 34.1919 46.2656 34.453V41.3436C46.2656 41.6047 46.1619 41.8551 45.9773 42.0397C45.7927 42.2243 45.5423 42.328 45.2812 42.328Z" fill="#C3C3C3"/>
<path d="M45.2812 47.2499C46.9122 47.2499 48.2344 45.9277 48.2344 44.2968C48.2344 42.6658 46.9122 41.3436 45.2812 41.3436C43.6503 41.3436 42.3281 42.6658 42.3281 44.2968C42.3281 45.9277 43.6503 47.2499 45.2812 47.2499Z" fill="#E4E4E2"/>
<path d="M45.2812 45.2811C45.8249 45.2811 46.2656 44.8404 46.2656 44.2968C46.2656 43.7531 45.8249 43.3124 45.2812 43.3124C44.7376 43.3124 44.2969 43.7531 44.2969 44.2968C44.2969 44.8404 44.7376 45.2811 45.2812 45.2811Z" fill="#C3C3C3"/>
<path d="M49.2188 60.0468H34.4531C33.6699 60.0468 32.9188 59.7356 32.365 59.1818C31.8111 58.628 31.5 57.8768 31.5 57.0936C31.5 56.3104 31.8111 55.5593 32.365 55.0055C32.9188 54.4516 33.6699 54.1405 34.4531 54.1405H35.4375C35.4375 53.6184 35.6449 53.1176 36.0141 52.7484C36.3833 52.3792 36.8841 52.1718 37.4062 52.1718H37.5752C38.0973 52.1718 38.598 52.3792 38.9672 52.7484L40.3594 54.1405H49.2188V60.0468Z" fill="#F6BB92"/>
<path d="M16.4745 55.477C16.329 55.7992 16.2548 56.1489 16.2569 56.5024C16.259 56.8559 16.3374 57.2048 16.4867 57.5252C16.636 57.8456 16.8527 58.13 17.122 58.3589C17.3913 58.5879 17.7069 58.756 18.0471 58.8518L21.8362 59.9223C22.5899 60.1353 23.3973 60.0402 24.0809 59.6579C24.7644 59.2756 25.2681 58.6374 25.4811 57.8837C25.694 57.13 25.5989 56.3227 25.2166 55.6392C24.8342 54.9557 24.1961 54.4521 23.4425 54.239L22.495 53.9714C22.5653 53.7226 22.586 53.4624 22.5557 53.2056C22.5255 52.9489 22.445 52.7006 22.3188 52.4749C22.1926 52.2493 22.0232 52.0507 21.8202 51.8905C21.6173 51.7303 21.3848 51.6117 21.136 51.5414L20.9734 51.4955C20.7246 51.4252 20.4644 51.4045 20.2076 51.4348C19.9509 51.465 19.7026 51.5456 19.4769 51.6718C18.361 52.296 17.4747 53.2618 16.9484 54.4272L16.4745 55.477Z" fill="#F6BB92"/>
<path d="M11.4496 23.6249C12.3914 23.625 13.2946 24.0589 13.9606 24.8312L15.7498 26.9062L17.5389 24.8312C18.2049 24.0589 19.1081 23.625 20.0499 23.6249C20.8419 23.6249 21.6113 23.9319 22.2356 24.4972C22.8598 25.0625 23.3033 25.8537 23.4953 26.7448C23.7126 27.7524 23.6558 28.8132 23.3329 29.7819C23.01 30.7507 22.4367 31.5799 21.6916 32.156L15.75 36.7499L9.8084 32.156C9.06327 31.5799 8.48997 30.7507 8.16706 29.782C7.84416 28.8132 7.78745 27.7524 8.0047 26.7448C8.19674 25.8538 8.64009 25.0627 9.26427 24.4974C9.88845 23.9321 10.6576 23.625 11.4496 23.6249V23.6249Z" fill="#5D62B5"/>
<path d="M31.5 16.7343H32.4844V22.6405H31.5V16.7343Z" fill="#EEB58E"/>
<path d="M46.2656 16.7343H47.25V22.6405H46.2656V16.7343Z" fill="#EEB58E"/>
<path d="M35.5596 33.5764L39.375 37.4061L43.1507 33.6057C42.9209 33.5674 42.712 33.4488 42.5614 33.271C42.4108 33.0932 42.3281 32.8678 42.3281 32.6347V29.5311H36.4219V32.5997C36.4219 32.8396 36.3342 33.0713 36.1755 33.2511C36.0167 33.431 35.7976 33.5467 35.5596 33.5764V33.5764Z" fill="#F6BB92"/>
<path d="M39.375 31.4999C36.5902 31.4999 33.9195 30.5319 31.9504 28.8089C29.9812 27.0859 28.875 24.7491 28.875 22.3124V20.9999H49.875V22.3124C49.875 24.7491 48.7688 27.0859 46.7996 28.8089C44.8305 30.5319 42.1598 31.4999 39.375 31.4999Z" fill="#5D62B5"/>
<path d="M27.5625 41.3436C28.1062 41.3436 28.5469 40.9029 28.5469 40.3593C28.5469 39.8156 28.1062 39.3749 27.5625 39.3749C27.0188 39.3749 26.5781 39.8156 26.5781 40.3593C26.5781 40.9029 27.0188 41.3436 27.5625 41.3436Z" fill="black"/>
</svg>
