<svg width="63" height="63" viewBox="0 0 63 63" fill="none" xmlns="http://www.w3.org/2000/svg">
<path d="M58.3836 5.24988H4.61638C3.51657 5.24988 2.625 6.14531 2.625 7.24988V45.2499C2.625 46.3544 3.51657 47.2499 4.61638 47.2499H58.3836C59.4834 47.2499 60.375 46.3544 60.375 45.2499V7.24988C60.375 6.14531 59.4834 5.24988 58.3836 5.24988Z" fill="#5D62B5"/>
<path d="M27.5625 24.2811L21.6562 30.1874C21.4803 30.1 21.3097 30.0053 21.1444 29.9031C20.1658 29.3092 19.3449 28.4881 18.7511 27.5094C18.1574 26.5308 17.8083 25.4234 17.7335 24.2811C17.7237 24.1273 17.7188 23.9723 17.7188 23.816V21.328H23.625L27.5625 24.2811Z" fill="#F3AF3E"/>
<path d="M25.5936 27.2343L23.1327 28.7108L21.1443 29.9031C20.1657 29.3092 19.3448 28.4881 18.751 27.5094C18.1573 26.5308 17.8082 25.4234 17.7334 24.2811H22.7303L25.1088 26.7347L25.5936 27.2343Z" fill="#5B3726"/>
<path d="M45.2812 21.328V23.816C45.2812 23.9723 45.2763 24.1273 45.2665 24.2811C45.1848 25.5223 44.7797 26.7205 44.0916 27.7566C43.4034 28.7927 42.4561 29.6307 41.3438 30.1874L35.4375 24.2811L39.375 21.328H45.2812Z" fill="#F3AF3E"/>
<path d="M45.2665 24.2811C45.1968 25.3458 44.8889 26.3811 44.3654 27.3108C43.8419 28.2404 43.1162 29.0406 42.242 29.6521L39.375 28.2186L37.4062 27.2343L37.8911 26.7347L40.2695 24.2811H45.2665Z" fill="#5B3726"/>
<path d="M42.3281 32.1561V44.953H20.6719V32.1561C20.6719 29.2843 21.8127 26.5302 23.8434 24.4995C25.874 22.4688 28.6282 21.328 31.5 21.328C34.3718 21.328 37.126 22.4688 39.1566 24.4995C41.1873 26.5302 42.3281 29.2843 42.3281 32.1561V32.1561Z" fill="#F3AF3E"/>
<path d="M26.2686 28.2843L29.2227 27.3006L29.8448 29.1691L26.8907 30.1528L26.2686 28.2843Z" fill="#D18D28"/>
<path d="M33.1572 29.1362L33.7794 27.2678L36.7335 28.2514L36.1113 30.1199L33.1572 29.1362Z" fill="#D18D28"/>
<path d="M37.6307 35.8857L36.7502 34.1249C35.9701 34.5124 33.3197 36.6619 32.4851 36.4126V34.1249H30.5164V36.4136C29.6817 36.6626 27.0303 34.5123 26.2502 34.1249L25.3696 35.8857C26.0454 36.2219 28.5374 38.486 29.2915 38.5192C30.0455 38.5524 30.7981 38.4272 31.5007 38.1517C32.2035 38.4271 32.9561 38.5522 33.7101 38.5189C34.4641 38.4856 36.955 36.222 37.6307 35.8857Z" fill="#744630"/>
<path d="M23.625 41.9999C23.6256 42.3455 23.5348 42.6851 23.3617 42.9843H20.6719V39.0468C21.4551 39.0468 22.2062 39.3579 22.76 39.9117C23.3139 40.4655 23.625 41.2167 23.625 41.9999Z" fill="#D18D28"/>
<path d="M42.3281 39.0468V42.9843H39.6383C39.4652 42.6851 39.3744 42.3455 39.375 41.9999C39.375 41.2167 39.6861 40.4655 40.24 39.9117C40.7938 39.3579 41.5449 39.0468 42.3281 39.0468Z" fill="#D18D28"/>
<path d="M20.6719 43.9686H18.7031C18.181 43.9686 17.6802 43.7612 17.311 43.392C16.9418 43.0228 16.7344 42.522 16.7344 41.9999C16.7344 41.2167 17.0455 40.4655 17.5993 39.9117C18.1531 39.3579 18.9043 39.0468 19.6875 39.0468C20.4707 39.0468 21.2219 39.3579 21.7757 39.9117C22.3295 40.4655 22.6406 41.2167 22.6406 41.9999C22.6406 42.522 22.4332 43.0228 22.064 43.392C21.6948 43.7612 21.194 43.9686 20.6719 43.9686Z" fill="#F3AF3E"/>
<path d="M44.2969 43.9686H42.3281C41.806 43.9686 41.3052 43.7612 40.936 43.392C40.5668 43.0228 40.3594 42.522 40.3594 41.9999C40.3594 41.2167 40.6705 40.4655 41.2243 39.9117C41.7781 39.3579 42.5293 39.0468 43.3125 39.0468C44.0957 39.0468 44.8469 39.3579 45.4007 39.9117C45.9545 40.4655 46.2656 41.2167 46.2656 41.9999C46.2656 42.522 46.0582 43.0228 45.689 43.392C45.3198 43.7612 44.819 43.9686 44.2969 43.9686Z" fill="#F3AF3E"/>
<path d="M31.5 35.1093C30.9779 35.1093 30.4771 34.9018 30.1079 34.5326C29.7387 34.1634 29.5312 33.6626 29.5312 33.1405V31.1718H33.4688V33.1405C33.4688 33.6626 33.2613 34.1634 32.8921 34.5326C32.5229 34.9018 32.0221 35.1093 31.5 35.1093Z" fill="#5B3726"/>
<path d="M40.3594 53.4843H22.6406L22.8092 53.3157C24.5912 51.5324 25.5927 49.1147 25.5938 46.5936H37.4062C37.4064 49.1149 38.408 51.5328 40.1908 53.3157L40.3594 53.4843Z" fill="#D9D9D9"/>
<path d="M58.3836 47.2499H4.61638C4.08823 47.2499 3.58172 47.0286 3.20826 46.6348C2.83481 46.241 2.625 45.7068 2.625 45.1499V41.9999H60.375V45.1499C60.375 45.7068 60.1652 46.241 59.7917 46.6348C59.4183 47.0286 58.9118 47.2499 58.3836 47.2499Z" fill="#E4E4E2"/>
<path d="M22.6406 53.4843H40.3594C40.8815 53.4843 41.3823 53.6917 41.7515 54.0609C42.1207 54.4301 42.3281 54.9309 42.3281 55.453V57.4218H20.6719V55.453C20.6719 54.9309 20.8793 54.4301 21.2485 54.0609C21.6177 53.6917 22.1185 53.4843 22.6406 53.4843V53.4843Z" fill="#E4E4E2"/>
<path d="M37.6127 48.5624H25.3867C25.5243 47.9152 25.5935 47.2553 25.5934 46.5936H37.4059C37.4058 47.2553 37.4751 47.9152 37.6127 48.5624V48.5624Z" fill="#A8A8A8"/>
<circle cx="55.125" cy="10.4999" r="2.625" fill="#62B58F"/>
</svg>
